HIERARCHY
ROOT hip
{
  OFFSET -154.165 87.8416 12.5943
  CHANNELS 6 Xposition Yposition Zposition Zrotation Xrotation Yrotation
  JOINT abdomen
  {
    OFFSET 0 20.6881 -0.73152
    CHANNELS 3 Zrotation Xrotation Yrotation
    JOINT chest
    {
      OFFSET 0 11.7043 -0.48768
      CHANNELS 3 Zrotation Xrotation Yrotation
      JOINT neck
      {
        OFFSET 0 22.1894 -2.19456
        CHANNELS 3 Zrotation Xrotation Yrotation
        JOINT head
        {
          OFFSET -0.24384 7.07133 1.2192
          CHANNELS 3 Zrotation Xrotation Yrotation
          JOINT leftEye
          {
            OFFSET 4.14528 8.04674 8.04672
            CHANNELS 3 Zrotation Xrotation Yrotation
            End Site
            {
              OFFSET 1 0 0
            }
          }
          JOINT rightEye
          {
            OFFSET -3.6576 8.04674 8.04672
            CHANNELS 3 Zrotation Xrotation Yrotation
            End Site
            {
              OFFSET 1 0 0
            }
          }
        }
      }
      JOINT rCollar
      {
        OFFSET -2.68224 19.2634 -4.8768
        CHANNELS 3 Zrotation Xrotation Yrotation
        JOINT rShldr
        {
          OFFSET -8.77824 -1.95073 1.46304
          CHANNELS 3 Zrotation Xrotation Yrotation
          JOINT rForeArm
          {
            OFFSET -28.1742 -1.7115 0.48768
            CHANNELS 3 Zrotation Xrotation Yrotation
            JOINT rHand
            {
              OFFSET -22.5879 0.773209 7.07136
              CHANNELS 3 Zrotation Xrotation Yrotation
              JOINT rThumb1
              {
                OFFSET -1.2192 -0.487915 3.41376
                CHANNELS 3 Zrotation Xrotation Yrotation
                JOINT rThumb2
                {
                  OFFSET -3.37035 -0.52449 3.41376
                  CHANNELS 3 Zrotation Xrotation Yrotation
                  End Site
                  {
                    OFFSET -1.78271 -1.18214 1.43049
                  }
                }
              }
              JOINT rIndex1
              {
                OFFSET -7.75947 0.938293 5.60832
                CHANNELS 3 Zrotation Xrotation Yrotation
                JOINT rIndex2
                {
                  OFFSET -2.54057 -0.884171 1.56538
                  CHANNELS 3 Zrotation Xrotation Yrotation
                  End Site
                  {
                    OFFSET -1.62519 -0.234802 1.16502
                  }
                }
              }
              JOINT rMid1
              {
                OFFSET -8.24714 1.18213 3.41376
                CHANNELS 3 Zrotation Xrotation Yrotation
                JOINT rMid2
                {
                  OFFSET -3.10165 -0.590103 1.0647
                  CHANNELS 3 Zrotation Xrotation Yrotation
                  End Site
                  {
                    OFFSET -2.48547 -0.328903 0.83742
                  }
                }
              }
              JOINT rRing1
              {
                OFFSET -8.82822 0.546677 1.51678
                CHANNELS 3 Zrotation Xrotation Yrotation
                JOINT rRing2
                {
                  OFFSET -2.60934 -0.819778 -0.0198488
                  CHANNELS 3 Zrotation Xrotation Yrotation
                  End Site
                  {
                    OFFSET -2.33842 -0.294052 0.168128
                  }
                }
              }
              JOINT rPinky1
              {
                OFFSET -8.27202 -0.0477905 -0.4584
                CHANNELS 3 Zrotation Xrotation Yrotation
                JOINT rPinky2
                {
                  OFFSET -1.82734 -0.647385 -0.700984
                  CHANNELS 3 Zrotation Xrotation Yrotation
                  End Site
                  {
                    OFFSET -1.69225 -0.51767 -0.607171
                  }
                }
              }
            }
          }
        }
      }
      JOINT lCollar
      {
        OFFSET 2.68224 19.2634 -4.8768
        CHANNELS 3 Zrotation Xrotation Yrotation
        JOINT lShldr
        {
          OFFSET 8.77824 -1.95073 1.46304
          CHANNELS 3 Zrotation Xrotation Yrotation
          JOINT lForeArm
          {
            OFFSET 28.1742 -1.7115 0.48768
            CHANNELS 3 Zrotation Xrotation Yrotation
            JOINT lHand
            {
              OFFSET 22.5879 0.773209 7.07136
              CHANNELS 3 Zrotation Xrotation Yrotation
              JOINT lThumb1
              {
                OFFSET 1.2192 -0.487915 3.41376
                CHANNELS 3 Zrotation Xrotation Yrotation
                JOINT lThumb2
                {
                  OFFSET 3.37035 -0.52449 3.41376
                  CHANNELS 3 Zrotation Xrotation Yrotation
                  End Site
                  {
                    OFFSET 1.78271 -1.18214 1.43049
                  }
                }
              }
              JOINT lIndex1
              {
                OFFSET 7.75947 0.938293 5.60832
                CHANNELS 3 Zrotation Xrotation Yrotation
                JOINT lIndex2
                {
                  OFFSET 2.54057 -0.884171 1.56538
                  CHANNELS 3 Zrotation Xrotation Yrotation
                  End Site
                  {
                    OFFSET 1.62519 -0.234802 1.16502
                  }
                }
              }
              JOINT lMid1
              {
                OFFSET 8.24714 1.18213 3.41376
                CHANNELS 3 Zrotation Xrotation Yrotation
                JOINT lMid2
                {
                  OFFSET 3.10165 -0.590103 1.0647
                  CHANNELS 3 Zrotation Xrotation Yrotation
                  End Site
                  {
                    OFFSET 2.48547 -0.328903 0.83742
                  }
                }
              }
              JOINT lRing1
              {
                OFFSET 8.82822 0.546677 1.51678
                CHANNELS 3 Zrotation Xrotation Yrotation
                JOINT lRing2
                {
                  OFFSET 2.60934 -0.819778 -0.0198488
                  CHANNELS 3 Zrotation Xrotation Yrotation
                  End Site
                  {
                    OFFSET 2.33842 -0.294052 0.168128
                  }
                }
              }
              JOINT lPinky1
              {
                OFFSET 8.27202 -0.0477905 -0.4584
                CHANNELS 3 Zrotation Xrotation Yrotation
                JOINT lPinky2
                {
                  OFFSET 1.82734 -0.647385 -0.700984
                  CHANNELS 3 Zrotation Xrotation Yrotation
                  End Site
                  {
                    OFFSET 1.69225 -0.51767 -0.607171
                  }
                }
              }
            }
          }
        }
      }
    }
  }
  JOINT rButtock
  {
    OFFSET -8.77824 4.35084 1.2192
    CHANNELS 3 Zrotation Xrotation Yrotation
    JOINT rThigh
    {
      OFFSET 0 -1.70687 -2.19456
      CHANNELS 3 Zrotation Xrotation Yrotation
      JOINT rShin
      {
        OFFSET 0 -36.8199 0.73152
        CHANNELS 3 Zrotation Xrotation Yrotation
        JOINT rFoot
        {
          OFFSET 0.73152 -45.1104 -5.12064
          CHANNELS 3 Zrotation Xrotation Yrotation
          End Site
          {
            OFFSET -1.1221 -3.69964 12.103
          }
        }
      }
    }
  }
  JOINT lButtock
  {
    OFFSET 8.77824 4.35084 1.2192
    CHANNELS 3 Zrotation Xrotation Yrotation
    JOINT lThigh
    {
      OFFSET 0 -1.70687 -2.19456
      CHANNELS 3 Zrotation Xrotation Yrotation
      JOINT lShin
      {
        OFFSET 0 -36.8199 0.73152
        CHANNELS 3 Zrotation Xrotation Yrotation
        JOINT lFoot
        {
          OFFSET -0.73152 -45.1104 -5.12064
          CHANNELS 3 Zrotation Xrotation Yrotation
          End Site
          {
            OFFSET 1.1221 -3.69964 12.103
          }
        }
      }
    }
  }
}
MOTION
Frames:	4
Frame Time:	0.00833333
183.064 84.7658 40.3046 0.29282 -0.000579782 -0.00500387 -0.385201 -0.0016881 -0.010996 -0.106235 -0.00256707 -0.0184051 1.01196e-015 0 -6.21202e-018 3.047e-015 3.18055e-015 -4.03781e-017 -0 0 0 -0 0 0 4.95612e-016 -6.98852e-018 1.49089e-016 1.26977e-014 -2.48481e-017 5.96354e-016 1.83081e-013 -6.08281e-014 -1.27222e-014 2.11944e-012 2.61153e-014 -2.54444e-014 4.99404e-012 -8.14675e-014 -6.04305e-014 8.61811e-012 -1.46306e-013 -1.11319e-013 4.99745e-012 -7.95139e-014 -7.95139e-014 7.73091 5.47488 0.417314 4.99526e-012 -8.12035e-014 -6.36111e-014 2.90554 0.965183 0.102902 5.00127e-012 -8.14023e-014 -6.2816e-014 10.2786 0.731801 0.0259123 4.9881e-012 -7.79236e-014 -5.725e-014 2.22167 -0.733487 -0.20892 3.9895e-016 -7.37677e-018 -1.49089e-016 8.77904e-015 6.21202e-017 -9.93923e-016 1.83329e-013 5.26779e-014 1.27222e-014 2.1194e-012 -7.24819e-014 -3.81667e-014 4.99766e-012 -4.88709e-014 -6.04305e-014 8.63799e-012 -8.5875e-014 -1.02573e-013 4.99268e-012 -4.77083e-014 -5.40694e-014 -7.73091 5.47488 -0.417314 4.99794e-012 -4.88016e-014 -6.04305e-014 -2.90554 0.965183 -0.102902 4.99355e-012 -4.86029e-014 -6.12257e-014 -10.2786 0.731801 -0.0259123 5.00878e-012 -4.65156e-014 -6.99722e-014 -2.22167 -0.733487 0.20892 -2.03217e-016 0 -3.88251e-019 0.221722 -2.58355 -0.0280825 -0.00749011 -0.872641 -0.0651447 -0.513186 3.45578 0.129358 2.03217e-016 0 3.88251e-019 -0.807703 -4.07085 0.0653888 0.00325523 1.8214 0.0244273 0.517635 2.2491 -0.10517 
176.749 80.6302 34.0427 11.1447 17.3492 27.6798 -2.36756 1.44135 -2.10497 0.191124 -1.06282 -0.633025 -1.27782 -1.18107 -0.671818 3.26883 -3.07969 -0.586189 -0 0 0 -0 0 0 5.7675e-014 -5.71292e-013 -8.18869e-014 19.9428 4.23998 -3.92638 -5.72146 -2.99033 8.47138 0.035682 4.19263 0.583553 2.74204e-010 1.19297e-009 -5.36702e-010 4.6819e-010 2.06569e-009 -9.32171e-010 2.74207e-010 1.19297e-009 -5.36716e-010 7.73091 5.47488 0.417314 2.74205e-010 1.19297e-009 -5.36704e-010 2.90554 0.965183 0.102902 2.74212e-010 1.19297e-009 -5.36702e-010 10.2786 0.731801 0.0259123 2.74198e-010 1.19298e-009 -5.36696e-010 2.22167 -0.733487 -0.20892 5.75851e-014 -5.71293e-013 -8.21544e-014 -22.3364 13.7113 -4.8851 12.0424 -8.98856 -13.4565 -0.00120462 0.770521 -0.108254 -7.1061e-011 -1.14582e-010 8.02567e-011 -1.21523e-010 -1.97902e-010 1.3963e-010 -7.10658e-011 -1.14581e-010 8.02633e-011 -7.73091 5.47488 -0.417314 -7.10563e-011 -1.14578e-010 8.0251e-011 -2.90554 0.965183 -0.102902 -7.10662e-011 -1.14581e-010 8.02554e-011 -10.2786 0.731801 -0.0259123 -7.10529e-011 -1.14579e-010 8.02477e-011 -2.22167 -0.733487 0.20892 -2.03217e-016 0 -3.88251e-019 -2.88121 -16.7976 -2.43648 -0.443579 18.234 0.0545278 2.16393 -40.0531 2.91699 2.03217e-016 0 3.88251e-019 -3.03002 -8.50155 -0.213349 -0.226879 11.4802 -0.339837 0.624453 -2.00556 0.425964 
175.718 80.9184 34.1489 6.66201 21.8863 60.8868 -4.36102 2.9356 -4.26946 0.461636 -2.16891 -1.27245 -2.66537 -2.42332 -1.39266 6.66797 -6.3421 -1.2271 -0 0 0 -0 0 0 1.22242e-013 -1.21326e-012 -1.72495e-013 41.689 8.68124 -8.09356 -10.8187 -5.93343 17.4995 -0.0204607 8.6306 1.21194 5.65343e-010 2.52484e-009 -1.13994e-009 9.64978e-010 4.3717e-009 -1.97973e-009 5.65345e-010 2.52483e-009 -1.13995e-009 7.73091 5.47488 0.417314 5.65343e-010 2.52483e-009 -1.13994e-009 2.90554 0.965183 0.102902 5.65351e-010 2.52483e-009 -1.13994e-009 10.2786 0.731801 0.0259123 5.65336e-010 2.52484e-009 -1.13993e-009 2.22167 -0.733487 -0.20892 1.22159e-013 -1.21326e-012 -1.72728e-013 -43.1757 27.8507 -10.9857 20.1585 -16.7693 -28.6396 0.000687216 1.58146 -0.222253 -1.61027e-010 -2.47127e-010 1.68445e-010 -2.75565e-010 -4.26822e-010 2.93058e-010 -1.61031e-010 -2.47127e-010 1.68452e-010 -7.73091 5.47488 -0.417314 -1.61017e-010 -2.47119e-010 1.68433e-010 -2.90554 0.965183 -0.102902 -1.61033e-010 -2.47126e-010 1.68443e-010 -10.2786 0.731801 -0.0259123 -1.61022e-010 -2.47123e-010 1.68436e-010 -2.22167 -0.733487 0.20892 -2.03217e-016 0 -3.88251e-019 -7.66837 -31.5663 -5.5598 -1.02771 38.494 0.217578 50.216 -84.0727 49.2397 2.03217e-016 0 3.88251e-019 -5.42908 -13.2707 -0.489225 -0.323816 21.7402 -0.755557 0.81976 -6.49 0.993609 
174.68 81.2349 34.24 1.70205 9.36589 84.1525 -6.01579 4.30421 -6.30879 0.717524 -3.18184 -1.86481 -3.91668 -3.54127 -2.01888 9.61535 -9.23517 -1.7791 -0 0 0 -0 0 0 1.72034e-013 -1.71386e-012 -2.45959e-013 61.5936 12.4784 -12.0353 -14.5858 -8.1881 25.6596 -0.154477 12.5726 1.78888 8.12625e-010 3.57908e-009 -1.60999e-009 1.38733e-009 6.19737e-009 -2.79629e-009 8.12627e-010 3.57908e-009 -1.60999e-009 7.73091 5.47488 0.417314 8.12625e-010 3.57908e-009 -1.60998e-009 2.90554 0.965183 0.102902 8.12634e-010 3.57908e-009 -1.60998e-009 10.2786 0.731801 0.0259123 8.12618e-010 3.57908e-009 -1.60997e-009 2.22167 -0.733487 -0.20892 1.71957e-013 -1.71386e-012 -2.46165e-013 -58.3086 39.7511 -18.6553 23.9406 -20.9136 -43.3285 0.00512708 2.31153 -0.324998 -2.23178e-010 -3.43647e-010 2.40891e-010 -3.81844e-010 -5.93533e-010 4.19096e-010 -2.23183e-010 -3.43648e-010 2.40898e-010 -7.73091 5.47488 -0.417314 -2.23165e-010 -3.43636e-010 2.40874e-010 -2.90554 0.965183 -0.102902 -2.23186e-010 -3.43647e-010 2.40889e-010 -10.2786 0.731801 -0.0259123 -2.23176e-010 -3.43644e-010 2.40883e-010 -2.22167 -0.733487 0.20892 -2.03217e-016 0 -3.88251e-019 -13.9313 -44.8465 -9.81423 -1.69725 56.4463 0.516802 173.458 -52.3454 169.422 2.03217e-016 0 3.88251e-019 -7.60947 -17.3615 -0.799907 -0.267014 30.7927 -1.21995 1.07764 -10.5115 1.51268 
